<svg xmlns="http://www.w3.org/2000/svg" width="24.561" height="15" viewBox="0 0 24.561 15"><defs><style>.a,.b{fill:#717171;}.a{opacity:0.498;}</style></defs><g transform="translate(-1749 -745)"><path class="a" d="M3.978,6.64.149,1.23A.774.774,0,0,1,.772,0H4.151L7.98,5.41h0a.772.772,0,0,1-.621,1.23Zm11.186-.1L16.89.157h3.45a.772.772,0,0,1,.772.76L20.7,2.408l-.978,3.565,0,0a.775.775,0,0,1-.746.565Z" transform="translate(1751.613 749.18)"/><path class="b" d="M0,15l.548-2.48a2.086,2.086,0,0,1,2.049-1.7H6.386L2.4,5.188a1.956,1.956,0,0,1-.164-.231,2.081,2.081,0,0,1-.22-1.663A2.143,2.143,0,0,1,2.2,2.739l.6-1.43A2.088,2.088,0,0,1,4.739,0h8.618l-.545,2.474a2.09,2.09,0,0,1-2.052,1.7l0,0H6.968l3.984,5.63a1.857,1.857,0,0,1,.164.231,2.088,2.088,0,0,1,.22,1.666,2.015,2.015,0,0,1-.182.554l-.6,1.43A2.088,2.088,0,0,1,8.618,15ZM6.591,10.82h3.38A.775.775,0,0,0,10.6,9.59L6.766,4.18H3.385a.772.772,0,0,0-.622,1.23h0ZM11.606,14.9l.93-2.453c.413-.922,1.026-1.723,2.054-1.723l0,0h3.03l1.729-6.385H16.259l0,0A2.087,2.087,0,0,1,14.18,2.245a2.123,2.123,0,0,1,.069-.532l.3-1.555H22.47l0,0a2.087,2.087,0,0,1,2.088,2.088,1.976,1.976,0,0,1-.061.491l0,.012-.014.051L21.649,13.321A2.087,2.087,0,0,1,19.626,14.9l0,0ZM19.5,4.334l-1.726,6.385h3.812a.769.769,0,0,0,.494-.179c.029-.025.056-.052.083-.081a.934.934,0,0,0,.07-.09s0,0,0,0a.809.809,0,0,0,.054-.1.009.009,0,0,1,0,0,.894.894,0,0,0,.039-.107s0,0,0,0l.979-3.565,0-.009L23.721,5.1V5.087a.807.807,0,0,0-.022-.164c-.007-.02-.012-.041-.018-.06,0,0,0,0,0-.007-.008-.023-.018-.045-.027-.068a.765.765,0,0,0-.7-.455H19.5Z" transform="translate(1749 745)"/></g></svg>