<svg xmlns="http://www.w3.org/2000/svg" width="35.92" height="42.5" viewBox="0 0 35.92 42.5">
  <path id="XMLID_21_" d="M221.832,106.024a16.732,16.732,0,0,1-11.979-3.418c.26,4.494,1.663,8.715,9.383,9.834-2.59.569-4.926.575-7.12-.748,1.119,6.861,13.623,4.654,18.759,6.039,1.385.371,3.715,2,3.783,3.616,2.522,1.712,2.411,3.2-.179,4.691,2.361-3.709-10.848,1.385-12.071,8.363H237.34c10.452,0,7.973-8.808,7.188-10.545-1.174-2.6-2.417-5.421-4.073-9.117-.087-.192-.192-.377-.26-.575-.55-1.613-1.558-6.094,1.9-4.834-3.777-14.445-26.2-2.182-32.561-17.43C208.852,101.511,211.448,104.225,221.832,106.024Z" transform="translate(-209.435 -91.9)" fill="#fff"/>
</svg>
