<svg xmlns="http://www.w3.org/2000/svg" xmlns:xlink="http://www.w3.org/1999/xlink" width="227.343" height="60" viewBox="0 0 227.343 60"><defs><style>.a{fill:url(#a);}.b,.g,.i{opacity:0.8;}.b{fill:url(#b);}.c,.d,.e,.h{opacity:0.3;}.c{fill:url(#c);}.d{fill:url(#d);}.e{fill:url(#e);}.f{opacity:0.2;fill:url(#f);}.g{fill:url(#g);}.h{fill:url(#h);}.i{fill:url(#i);}.j{fill:#893691;}.k{fill:#486ec8;}</style><linearGradient id="a" x1="0.862" y1="0.955" x2="0.346" y2="0.351" gradientUnits="objectBoundingBox"><stop offset="0" stop-color="#893691"/><stop offset="0.204" stop-color="#7748a0"/><stop offset="0.612" stop-color="#4775c8"/><stop offset="1" stop-color="#14a6f3"/></linearGradient><linearGradient id="b" x1="0.675" y1="0.01" x2="0.165" y2="1.23" gradientUnits="objectBoundingBox"><stop offset="0.054" stop-color="#744eaf"/><stop offset="0.216" stop-color="#6c56b3"/><stop offset="0.473" stop-color="#556abd"/><stop offset="0.79" stop-color="#308ccd"/><stop offset="1" stop-color="#14a6da"/></linearGradient><linearGradient id="c" x1="0.467" y1="0.557" x2="0.564" y2="0.177" gradientUnits="objectBoundingBox"><stop offset="0" stop-color="#437ac6" stop-opacity="0.2"/><stop offset="0.109" stop-color="#4276bf" stop-opacity="0.286"/><stop offset="0.273" stop-color="#3d6aaa" stop-opacity="0.42"/><stop offset="0.472" stop-color="#375788" stop-opacity="0.576"/><stop offset="0.699" stop-color="#2e3d59" stop-opacity="0.761"/><stop offset="0.945" stop-color="#221c1d" stop-opacity="0.957"/><stop offset="1" stop-color="#1f140f"/></linearGradient><linearGradient id="d" x1="0.411" y1="-43.992" x2="0.65" y2="-44.984" xlink:href="#c"/><linearGradient id="e" x1="0.496" y1="0.331" x2="0.514" y2="0.074" xlink:href="#c"/><linearGradient id="f" x1="0.419" y1="-53.325" x2="0.483" y2="-53.843" gradientUnits="objectBoundingBox"><stop offset="0" stop-color="#437ac6" stop-opacity="0.2"/><stop offset="1" stop-color="#1f140f"/></linearGradient><linearGradient id="g" x1="1.07" y1="0.275" x2="-0.144" y2="0.68" gradientUnits="objectBoundingBox"><stop offset="0" stop-color="#7a4eaf"/><stop offset="0.431" stop-color="#506cc1"/><stop offset="1" stop-color="#1497da"/></linearGradient><linearGradient id="h" x1="0.403" y1="0.668" x2="0.522" y2="0.369" xlink:href="#c"/><linearGradient id="i" x1="0.987" y1="0.953" x2="-0.081" y2="-0.011" gradientUnits="objectBoundingBox"><stop offset="0" stop-color="#7f4eaf"/><stop offset="0.56" stop-color="#1083da"/><stop offset="0.648" stop-color="#217bd4"/><stop offset="0.82" stop-color="#4c67c3"/><stop offset="1" stop-color="#7f4eaf"/></linearGradient></defs><g transform="translate(-1571 -46.242)"><g transform="translate(1571 46.242)"><path class="a" d="M226.936,111.839c-5.349.515-10.672-.419-16.911-4.825.367,6.344,2.347,12.3,13.246,13.883-3.656.8-6.955.812-10.052-1.056,1.579,9.686,19.232,6.571,26.483,8.525,1.955.524,5.244,2.819,5.34,5.1,3.56,2.417,3.4,4.511-.253,6.623,3.333-5.236-15.314,1.955-17.042,11.806H248.83c14.756,0,11.257-12.435,10.148-14.887-1.658-3.665-3.412-7.653-5.75-12.871-.122-.271-.27-.532-.366-.812-.777-2.277-2.2-8.6,2.688-6.824-5.332-20.393-36.989-3.08-45.969-24.607C208.612,105.469,212.277,109.3,226.936,111.839Z" transform="translate(-209.435 -91.9)"/><path class="b" d="M259.585,282.12c-.122-.27-.271-.532-.366-.812s-.192-.585-.288-.951c-.009-.017-.009-.044-.017-.061-.009-.052-.026-.1-.035-.148-.009-.026-.009-.044-.017-.07-.035-.148-.07-.3-.1-.454l-.524.419c-2.339-.061-5.908-.794-7.2-3.237a8.538,8.538,0,0,1-7.382.7c-.681-1.475,2.173-3.08,3.752-4.075-21.457,7.661-29.887-4.433-31-8.429.367,6.344,2.347,12.3,13.246,13.883-3.656.8-6.955.812-10.052-1.056,0,0,4.677,8.944,29.023,3.639-2.243,1.265-3.168,2.435-3.211,2.923a22.172,22.172,0,0,0,10.1-1.309c-.305,1.466-.646,3.36.218,4.677,2.086-.305,4.939-3.246,4.939-3.246C260.309,283.743,259.951,282.949,259.585,282.12Z" transform="translate(-215.792 -249.895)"/><path class="c" d="M259.585,282.12c-.122-.27-.271-.532-.366-.812s-.192-.585-.288-.951c-.009-.017-.009-.044-.017-.061-.009-.052-.026-.1-.035-.148-.009-.026-.009-.044-.017-.07-.035-.148-.07-.3-.1-.454l-.524.419c-2.339-.061-5.908-.794-7.2-3.237a8.538,8.538,0,0,1-7.382.7c-.681-1.475,2.173-3.08,3.752-4.075-21.457,7.661-29.887-4.433-31-8.429.367,6.344,2.347,12.3,13.246,13.883-3.656.8-6.955.812-10.052-1.056,0,0,4.677,8.944,29.023,3.639-2.243,1.265-3.168,2.435-3.211,2.923a22.172,22.172,0,0,0,10.1-1.309c-.305,1.466-.646,3.36.218,4.677,2.086-.305,4.939-3.246,4.939-3.246C260.309,283.743,259.951,282.949,259.585,282.12Z" transform="translate(-215.792 -249.895)"/><path class="d" d="M282.861,418.688a20.829,20.829,0,0,1-4.25-.026c.052-.489.977-1.658,3.211-2.923C257.477,421.044,252.8,412.1,252.8,412.1h0c1.579,9.686,19.232,6.571,26.483,8.525,1.955.524,5.244,2.818,5.34,5.1,3.56,2.417,3.4,4.511-.253,6.623,3.333-5.236-15.314,1.955-17.042,11.806h7.862c1.361-6.693,14.127-6.641,14.127-14.887C289.318,425.66,286.814,421.69,282.861,418.688Z" transform="translate(-249.016 -384.159)"/><path class="e" d="M282.861,418.688a20.829,20.829,0,0,1-4.25-.026c.052-.489.977-1.658,3.211-2.923C257.477,421.044,252.8,412.1,252.8,412.1h0c1.579,9.686,19.232,6.571,26.483,8.525,1.955.524,5.244,2.818,5.34,5.1,3.56,2.417,3.4,4.511-.253,6.623,3.333-5.236-15.314,1.955-17.042,11.806h7.862c1.361-6.693,14.127-6.641,14.127-14.887C289.318,425.66,286.814,421.69,282.861,418.688Z" transform="translate(-249.016 -384.159)"/><path class="f" d="M527.664,484.211c-.236-.663-2.434-6.7-2.975-7.81a4.738,4.738,0,0,1-1.545.576c-.872-1.318-.523-3.211-.218-4.677a19.6,19.6,0,0,1-5.855,1.335c3.953,3,6.457,6.972,6.457,10.576,0,8.246-12.766,8.194-14.127,14.887h8.115c10.6,0,11.684-6.379,11.108-10.916C528.58,487.841,527.83,484.656,527.664,484.211Z" transform="translate(-483.225 -439.106)"/><path class="g" d="M241.029,115.443c-1.571.986-4.433,2.6-3.752,4.075,0,0,9.5-2.452,7.155-6.117-2.051-3.2-9.9-.716-13.7-.681.131-.227.75-1.658,4.581-2.627-26.475-1.222-24.066-11.5-25.733-18.194-.969,13.569,2.7,17.4,17.356,19.939-5.349.515-10.672-.419-16.911-4.825C211.142,111.01,219.58,123.1,241.029,115.443Z" transform="translate(-209.435 -91.9)"/><path class="h" d="M241.029,115.443c-1.571.986-4.433,2.6-3.752,4.075,0,0,9.5-2.452,7.155-6.117-2.051-3.2-9.9-.716-13.7-.681.131-.227.75-1.658,4.581-2.627-26.475-1.222-24.066-11.5-25.733-18.194-.969,13.569,2.7,17.4,17.356,19.939-5.349.515-10.672-.419-16.911-4.825C211.142,111.01,219.58,123.1,241.029,115.443Z" transform="translate(-209.435 -91.9)"/><path class="i" d="M236.833,110.085c-3.831.977-4.45,2.4-4.581,2.626,3.8-.035,11.658-2.522,13.7.681,2.347,3.665-7.155,6.117-7.155,6.117a8.529,8.529,0,0,0,7.382-.7c1.4,2.679,5.558,3.3,7.827,3.237-.689-2.731-1.1-7.077,3.054-5.567-5.323-20.366-36.981-3.054-45.96-24.581C212.767,98.593,210.358,108.872,236.833,110.085Z" transform="translate(-210.955 -91.9)"/></g><g transform="translate(1632.877 70.492)"><g transform="translate(0 1.378)"><path class="j" d="M250.476,808.6a1.784,1.784,0,0,1,.9.416,2.081,2.081,0,0,1,.607.831,3.983,3.983,0,0,1,.192,1.343v13.747a5.067,5.067,0,0,1-.927,3.133,6.177,6.177,0,0,1-2.43,1.886,9.95,9.95,0,0,1-3.325.8,17.364,17.364,0,0,1-3.644-.064,3.106,3.106,0,0,1-1.6-.576,2.531,2.531,0,0,1-.671-.927,2.587,2.587,0,0,1-.064-1.215h1.854a22.435,22.435,0,0,0,3.229-.192,6.184,6.184,0,0,0,2.078-.608,2.567,2.567,0,0,0,1.119-1.055,3.158,3.158,0,0,0,.32-1.5V808.5h1.215A6.2,6.2,0,0,1,250.476,808.6Z" transform="translate(-239.469 -808.5)"/><path class="j" d="M300.875,828.93a8.519,8.519,0,0,1,1.662,2.621,8.923,8.923,0,0,1,.607,3.229,9.451,9.451,0,0,1-.544,3.2,7.983,7.983,0,0,1-1.535,2.622,7.1,7.1,0,0,1-2.43,1.758,7.884,7.884,0,0,1-3.165.639,7.09,7.09,0,0,1-2.973-.639,8.15,8.15,0,0,1-2.43-1.758,8.523,8.523,0,0,1-1.662-2.622,8.75,8.75,0,0,1-.607-3.2,9.641,9.641,0,0,1,.543-3.229,7.978,7.978,0,0,1,1.535-2.621,7.54,7.54,0,0,1,2.43-1.759,7.392,7.392,0,0,1,3.165-.671,6.889,6.889,0,0,1,3.005.671A7.761,7.761,0,0,1,300.875,828.93Zm-5.85,11.061a3.367,3.367,0,0,0,1.055-.128,2.9,2.9,0,0,0,1.215-.671,4.947,4.947,0,0,0,1.055-1.535,8.723,8.723,0,0,0,.639-2.653,8.015,8.015,0,0,0-.16-2.717,4.4,4.4,0,0,0-.8-1.694,2.711,2.711,0,0,0-1.087-.863,3.867,3.867,0,0,0-1.023-.288,3.653,3.653,0,0,0-1.087.128,2.719,2.719,0,0,0-1.215.671,4.766,4.766,0,0,0-1.055,1.5,7.929,7.929,0,0,0-.607,2.653,7.346,7.346,0,0,0,.128,2.718,4.4,4.4,0,0,0,.8,1.694,3.133,3.133,0,0,0,1.087.9A2.5,2.5,0,0,0,295.025,839.991Z" transform="translate(-272.349 -820.745)"/><path class="j" d="M356.637,826.676v13.715a9.536,9.536,0,0,1-.671,3.8,7.071,7.071,0,0,1-1.726,2.526,6.516,6.516,0,0,1-2.462,1.407,9.407,9.407,0,0,1-2.813.448,20.894,20.894,0,0,1-2.494-.16c-.8-.1-1.535-.224-2.206-.352a21.04,21.04,0,0,1-2.142-.512,2.835,2.835,0,0,1,.735-1.918,2.412,2.412,0,0,1,1.5-.48,9.963,9.963,0,0,1,2.046.224,11.642,11.642,0,0,0,2.366.224,3.768,3.768,0,0,0,1.471-.288,3.24,3.24,0,0,0,1.183-.927,4.833,4.833,0,0,0,.767-1.63,8.881,8.881,0,0,0,.288-2.43V839.4a3.861,3.861,0,0,1-.9.671,4.061,4.061,0,0,1-1.119.479,9.023,9.023,0,0,1-1.6.288,9.782,9.782,0,0,1-2.909-.224,6.069,6.069,0,0,1-2.494-1.215,5.659,5.659,0,0,1-1.726-2.334,8.7,8.7,0,0,1-.639-3.612,8.923,8.923,0,0,1,.48-2.973,6.438,6.438,0,0,1,1.47-2.366,5.851,5.851,0,0,1,2.43-1.471,8.923,8.923,0,0,1,3.421-.32,5.353,5.353,0,0,1,2.526.831,10.519,10.519,0,0,1,1.311,1.023,1.763,1.763,0,0,1,.991-1.247,4.582,4.582,0,0,1,1.694-.288h1.215Zm-4.156,7.129a5.108,5.108,0,0,0-.16-2.174,3.072,3.072,0,0,0-.8-1.343,3,3,0,0,0-1.119-.7,3.659,3.659,0,0,0-1.119-.224,6.509,6.509,0,0,0-1.087.032,3.481,3.481,0,0,0-1.311.415,3.046,3.046,0,0,0-1.151,1.151,5.168,5.168,0,0,0-.639,2.206,5.364,5.364,0,0,0,.16,2.462,3.493,3.493,0,0,0,.831,1.407,2.909,2.909,0,0,0,1.119.671,3.714,3.714,0,0,0,1.087.192,4.635,4.635,0,0,0,1.119-.064,2.8,2.8,0,0,0,1.247-.511,3.826,3.826,0,0,0,1.087-1.247A4.881,4.881,0,0,0,352.481,833.805Z" transform="translate(-308.609 -820.602)"/><path class="j" d="M411.375,828.93a8.519,8.519,0,0,1,1.662,2.621,8.924,8.924,0,0,1,.607,3.229,9.451,9.451,0,0,1-.543,3.2,7.982,7.982,0,0,1-1.534,2.622,7.1,7.1,0,0,1-2.43,1.758,7.884,7.884,0,0,1-3.165.639,7.09,7.09,0,0,1-2.973-.639,8.149,8.149,0,0,1-2.43-1.758,8.524,8.524,0,0,1-1.662-2.622,8.75,8.75,0,0,1-.607-3.2,9.638,9.638,0,0,1,.544-3.229,7.976,7.976,0,0,1,1.534-2.621,7.539,7.539,0,0,1,2.43-1.759,7.392,7.392,0,0,1,3.165-.671,6.888,6.888,0,0,1,3,.671A8.158,8.158,0,0,1,411.375,828.93Zm-5.85,11.061a3.367,3.367,0,0,0,1.055-.128,2.9,2.9,0,0,0,1.215-.671,4.946,4.946,0,0,0,1.055-1.535,8.721,8.721,0,0,0,.639-2.653,8.013,8.013,0,0,0-.16-2.717,4.4,4.4,0,0,0-.8-1.694,2.711,2.711,0,0,0-1.087-.863,3.866,3.866,0,0,0-1.023-.288,3.653,3.653,0,0,0-1.087.128,2.719,2.719,0,0,0-1.215.671,4.767,4.767,0,0,0-1.055,1.5,7.931,7.931,0,0,0-.607,2.653,7.346,7.346,0,0,0,.128,2.718,4.4,4.4,0,0,0,.8,1.694,3.131,3.131,0,0,0,1.087.9A2.388,2.388,0,0,0,405.525,839.991Z" transform="translate(-347.523 -820.745)"/></g><g transform="translate(70.614)"><path class="k" d="M478.241,824.2c.192.352.448.9.8,1.6s.7,1.374,1.055,2.078c.416.831.831,1.694,1.311,2.589h-2.877a2.608,2.608,0,0,1-1.279-.288,3.106,3.106,0,0,1-.863-.671,3.408,3.408,0,0,1-.512-.735,4.505,4.505,0,0,1-.224-.48,4.488,4.488,0,0,0-.288-.575c-.16-.288-.32-.639-.543-1.087-.192-.416-.416-.9-.639-1.407s-.448-1.023-.671-1.566a2.672,2.672,0,0,0-1.375-1.5,6.038,6.038,0,0,0-1.886-.447h-3.421v8.727h-1.215a5.833,5.833,0,0,1-1.119-.1,1.787,1.787,0,0,1-.9-.416,2.085,2.085,0,0,1-.608-.831,3.985,3.985,0,0,1-.192-1.343V809.529c.8-.224,1.662-.416,2.59-.607.8-.128,1.726-.256,2.813-.352a31.544,31.544,0,0,1,3.549-.1,11.289,11.289,0,0,1,3.74.7,6.853,6.853,0,0,1,2.462,1.5,5.064,5.064,0,0,1,1.343,2.078,6.76,6.76,0,0,1,.416,2.4,5.438,5.438,0,0,1-1.215,3.389,8.234,8.234,0,0,1-3.293,2.4,4.774,4.774,0,0,1,1.119.7,5.1,5.1,0,0,1,.831.831c.224.288.448.607.639.9A7.217,7.217,0,0,1,478.241,824.2Zm-11.413-5.5h4.028a4.23,4.23,0,0,0,3.1-.9,3.788,3.788,0,0,0,.959-2.526,4.566,4.566,0,0,0-.288-1.95,3.292,3.292,0,0,0-.9-1.247,3.7,3.7,0,0,0-1.311-.7,5.986,5.986,0,0,0-1.471-.288,13.005,13.005,0,0,0-4.124.448Z" transform="translate(-462.8 -807.59)"/><path class="k" d="M532.944,812.372c.575,0,1.279.032,2.046.1a5.232,5.232,0,0,1,2.174.671,4.749,4.749,0,0,1,1.726,1.95,8.349,8.349,0,0,1,.7,3.868v9.623h-1.183a4.077,4.077,0,0,1-1.6-.288,1.8,1.8,0,0,1-.991-1.055,5.333,5.333,0,0,1-1.311.991,5.4,5.4,0,0,1-2.43.607,7.987,7.987,0,0,1-2.462-.288,5.842,5.842,0,0,1-2.11-.991,4.742,4.742,0,0,1-1.439-1.726,5,5,0,0,1-.479-2.462,3.99,3.99,0,0,1,2.781-4.028q2.734-1.055,7.481-.288a4.42,4.42,0,0,0-.064-1.95,2.787,2.787,0,0,0-.863-1.375,3.1,3.1,0,0,0-2.174-.607,11.453,11.453,0,0,0-2.494.224,8.238,8.238,0,0,1-1.79.224,1.354,1.354,0,0,1-1.087-.416,2.78,2.78,0,0,1-.384-1.758,17.174,17.174,0,0,1,1.662-.512c.512-.128,1.151-.256,1.886-.384C531.314,812.436,532.081,812.372,532.944,812.372Zm3.229-6.234a1.146,1.146,0,0,1,.288,1.247,2.925,2.925,0,0,1-1.215,1.343,9.125,9.125,0,0,1-2.494,1.055,10.83,10.83,0,0,1-3.484.352,15.3,15.3,0,0,0,1.63-1.471,18.39,18.39,0,0,1,1.886-1.694,6.819,6.819,0,0,1,1.854-1.119A1.367,1.367,0,0,1,536.173,806.138Zm-3.964,19.693a5.315,5.315,0,0,0,1.407-.192,3.037,3.037,0,0,0,1.215-.671,3.19,3.19,0,0,0,.831-1.311,5.951,5.951,0,0,0,.256-2.142,8.667,8.667,0,0,0-1.055-.224c-.32-.032-.7-.1-1.151-.128a11.047,11.047,0,0,0-1.47-.032,5,5,0,0,0-.959.16,3.438,3.438,0,0,0-.927.416,2.575,2.575,0,0,0-.7.735,2.007,2.007,0,0,0-.288,1.119,2.33,2.33,0,0,0,.224,1.119,1.873,1.873,0,0,0,.608.7,2.67,2.67,0,0,0,.927.352A5.724,5.724,0,0,0,532.209,825.831Z" transform="translate(-505.515 -805.733)"/><path class="k" d="M586.389,826.417a7.46,7.46,0,0,1,3.581.479,6.52,6.52,0,0,1,2.462,1.854,7.671,7.671,0,0,1,1.374,2.749,10.478,10.478,0,0,1,.384,3.165,10.312,10.312,0,0,1-.575,3.2,7.539,7.539,0,0,1-1.566,2.622,7.217,7.217,0,0,1-2.462,1.758,8.08,8.08,0,0,1-3.229.639,5.177,5.177,0,0,1-1.279-.16,4.69,4.69,0,0,1-.959-.352,4.178,4.178,0,0,1-.671-.383,1.18,1.18,0,0,1-.352-.32v6.969h-1.183a5.841,5.841,0,0,1-1.119-.1,1.784,1.784,0,0,1-.9-.416,2.082,2.082,0,0,1-.607-.831,3.984,3.984,0,0,1-.192-1.343V826.8h1.183a5.781,5.781,0,0,1,1.566.224,1.715,1.715,0,0,1,.991.959,8.371,8.371,0,0,1,1.375-.927A6,6,0,0,1,586.389,826.417Zm-3.581,7.928a7.89,7.89,0,0,0,.16,2.717,4.42,4.42,0,0,0,.831,1.694,3.543,3.543,0,0,0,1.119.9,3.94,3.94,0,0,0,1.087.288,3.645,3.645,0,0,0,1.119-.128,2.822,2.822,0,0,0,1.247-.671,4.84,4.84,0,0,0,1.119-1.5,7.668,7.668,0,0,0,.639-2.622,9.124,9.124,0,0,0-.128-2.749,3.985,3.985,0,0,0-.8-1.694,2.79,2.79,0,0,0-1.119-.863,4.433,4.433,0,0,0-1.119-.288,3.53,3.53,0,0,0-1.119.1,2.919,2.919,0,0,0-1.279.671,4.726,4.726,0,0,0-1.119,1.5A6.334,6.334,0,0,0,582.809,834.345Z" transform="translate(-541.92 -819.778)"/><path class="k" d="M636.982,813.328a1.842,1.842,0,0,1-1.407-.608,2,2,0,0,1-.575-1.439,1.965,1.965,0,0,1,1.982-1.982,2.02,2.02,0,0,1,2.046,1.982,2.075,2.075,0,0,1-2.046,2.046Zm-.767,1.79H635v13.2a3.988,3.988,0,0,0,.192,1.343,1.624,1.624,0,0,0,.608.831,2.3,2.3,0,0,0,.9.416,6.069,6.069,0,0,0,1.119.1H639V817.772a3.985,3.985,0,0,0-.192-1.343,1.62,1.62,0,0,0-.608-.831,2.239,2.239,0,0,0-.9-.384A5.738,5.738,0,0,0,636.215,815.118Z" transform="translate(-579.949 -808.16)"/><path class="k" d="M671.345,822.571a10.02,10.02,0,0,1-.575,3.517,7.491,7.491,0,0,1-1.566,2.589,6.715,6.715,0,0,1-2.43,1.6,8.9,8.9,0,0,1-3.1.543,7.129,7.129,0,0,1-3.005-.64,7.757,7.757,0,0,1-2.43-1.758,9.086,9.086,0,0,1-1.63-2.621,8.752,8.752,0,0,1-.607-3.2,9.5,9.5,0,0,1,.7-3.868,7.608,7.608,0,0,1,1.79-2.622,6.41,6.41,0,0,1,2.462-1.439,7.12,7.12,0,0,1,2.685-.32,4.508,4.508,0,0,1,1.534.352,9.644,9.644,0,0,1,1.151.576c.352.256.671.511.959.735V808.6h1.183a5.853,5.853,0,0,1,1.119.1,1.788,1.788,0,0,1,.9.415,2.08,2.08,0,0,1,.607.831,3.98,3.98,0,0,1,.192,1.343v11.285Zm-8.12-5.275a3.851,3.851,0,0,0-1.023.288,2.946,2.946,0,0,0-1.087.863,5.232,5.232,0,0,0-.8,1.694,9.629,9.629,0,0,0,.448,5.371,4.949,4.949,0,0,0,1.055,1.535,2.722,2.722,0,0,0,1.215.671,4.749,4.749,0,0,0,1.087.128,3.859,3.859,0,0,0,1.023-.288,3.061,3.061,0,0,0,1.087-.9,5.578,5.578,0,0,0,.8-1.694,9.622,9.622,0,0,0-.448-5.371,4.419,4.419,0,0,0-1.055-1.5,3.22,3.22,0,0,0-2.3-.8Z" transform="translate(-594.236 -807.683)"/><path class="k" d="M724.575,828.93a8.525,8.525,0,0,1,1.662,2.621,8.92,8.92,0,0,1,.607,3.229,9.447,9.447,0,0,1-.543,3.2,7.982,7.982,0,0,1-1.534,2.622,7.1,7.1,0,0,1-2.43,1.758,7.885,7.885,0,0,1-3.165.639,7.091,7.091,0,0,1-2.973-.639,7.765,7.765,0,0,1-2.429-1.758,8.522,8.522,0,0,1-1.663-2.622,8.755,8.755,0,0,1-.607-3.2,9.635,9.635,0,0,1,.543-3.229,7.97,7.97,0,0,1,1.534-2.621,7.54,7.54,0,0,1,2.43-1.759,7.391,7.391,0,0,1,3.165-.671,6.888,6.888,0,0,1,3.005.671A7.764,7.764,0,0,1,724.575,828.93Zm-5.85,11.061a3.367,3.367,0,0,0,1.055-.128,2.9,2.9,0,0,0,1.215-.671,4.948,4.948,0,0,0,1.055-1.535,8.725,8.725,0,0,0,.639-2.653,8.014,8.014,0,0,0-.16-2.717,4.4,4.4,0,0,0-.8-1.694,2.711,2.711,0,0,0-1.087-.863,3.863,3.863,0,0,0-1.023-.288,3.653,3.653,0,0,0-1.087.128,2.72,2.72,0,0,0-1.215.671,4.765,4.765,0,0,0-1.055,1.5,7.932,7.932,0,0,0-.607,2.653,7.344,7.344,0,0,0,.128,2.718,4.406,4.406,0,0,0,.8,1.694,3.134,3.134,0,0,0,1.087.9A2.626,2.626,0,0,0,718.725,839.991Z" transform="translate(-631.993 -819.861)"/></g></g></g></svg>