<svg xmlns="http://www.w3.org/2000/svg" width="161.036" height="42.5" viewBox="0 0 161.036 42.5">
  <g id="Group_1186" data-name="Group 1186" transform="translate(-2283 3183)">
    <g id="XMLID_4_" transform="translate(2326.83 -3164.846)">
      <path id="XMLID_35_" d="M247.266,808.568a1.263,1.263,0,0,1,.634.295,1.474,1.474,0,0,1,.43.589,2.821,2.821,0,0,1,.136.951v9.737a3.589,3.589,0,0,1-.657,2.219,4.376,4.376,0,0,1-1.721,1.336,7.047,7.047,0,0,1-2.355.566,12.3,12.3,0,0,1-2.581-.045,2.2,2.2,0,0,1-1.132-.408,1.793,1.793,0,0,1-.476-.657,1.832,1.832,0,0,1-.045-.86h1.313a15.888,15.888,0,0,0,2.287-.136,4.38,4.38,0,0,0,1.472-.43,1.819,1.819,0,0,0,.793-.747,2.237,2.237,0,0,0,.226-1.064V808.5h.861A4.388,4.388,0,0,1,247.266,808.568Z" transform="translate(-239.469 -808.5)" fill="#fff"/>
      <path id="XMLID_37_" d="M297.062,828.221a6.034,6.034,0,0,1,1.178,1.857,6.32,6.32,0,0,1,.43,2.287,6.7,6.7,0,0,1-.385,2.264,5.655,5.655,0,0,1-1.087,1.857,5.028,5.028,0,0,1-1.721,1.245,5.586,5.586,0,0,1-2.242.453,5.023,5.023,0,0,1-2.106-.453,5.773,5.773,0,0,1-1.721-1.245,6.037,6.037,0,0,1-1.178-1.857,6.2,6.2,0,0,1-.43-2.264,6.829,6.829,0,0,1,.385-2.287,5.652,5.652,0,0,1,1.087-1.857,5.34,5.34,0,0,1,1.721-1.246,5.236,5.236,0,0,1,2.242-.475,4.879,4.879,0,0,1,2.129.475A5.5,5.5,0,0,1,297.062,828.221Zm-4.144,7.835a2.385,2.385,0,0,0,.747-.091,2.053,2.053,0,0,0,.86-.476,3.5,3.5,0,0,0,.747-1.087,6.178,6.178,0,0,0,.453-1.879,5.677,5.677,0,0,0-.113-1.925,3.117,3.117,0,0,0-.566-1.2,1.921,1.921,0,0,0-.77-.611,2.737,2.737,0,0,0-.725-.2,2.585,2.585,0,0,0-.77.091,1.926,1.926,0,0,0-.861.475,3.376,3.376,0,0,0-.747,1.064,5.616,5.616,0,0,0-.43,1.879,5.2,5.2,0,0,0,.091,1.925,3.118,3.118,0,0,0,.566,1.2,2.219,2.219,0,0,0,.77.634A1.772,1.772,0,0,0,292.918,836.056Z" transform="translate(-276.855 -822.424)" fill="#fff"/>
      <path id="XMLID_40_" d="M352.105,826.564v9.715a6.754,6.754,0,0,1-.476,2.695,5.009,5.009,0,0,1-1.223,1.789,4.614,4.614,0,0,1-1.744,1,6.663,6.663,0,0,1-1.993.317,14.8,14.8,0,0,1-1.766-.113c-.566-.068-1.087-.159-1.563-.249a14.908,14.908,0,0,1-1.517-.362,2.008,2.008,0,0,1,.521-1.359,1.709,1.709,0,0,1,1.064-.34,7.058,7.058,0,0,1,1.449.159,8.248,8.248,0,0,0,1.676.159,2.669,2.669,0,0,0,1.042-.2,2.3,2.3,0,0,0,.838-.657,3.423,3.423,0,0,0,.543-1.155,6.29,6.29,0,0,0,.2-1.721v-.657a2.733,2.733,0,0,1-.634.476,2.877,2.877,0,0,1-.793.34,6.392,6.392,0,0,1-1.132.2,6.93,6.93,0,0,1-2.061-.159,4.3,4.3,0,0,1-1.766-.861,4.008,4.008,0,0,1-1.223-1.653,6.162,6.162,0,0,1-.453-2.559,6.32,6.32,0,0,1,.34-2.106,4.56,4.56,0,0,1,1.042-1.676,4.144,4.144,0,0,1,1.721-1.042,6.32,6.32,0,0,1,2.423-.227,3.792,3.792,0,0,1,1.789.589,7.458,7.458,0,0,1,.928.725,1.249,1.249,0,0,1,.7-.883,3.246,3.246,0,0,1,1.2-.2h.861Zm-2.944,5.05a3.618,3.618,0,0,0-.113-1.54,2.176,2.176,0,0,0-.566-.951,2.124,2.124,0,0,0-.793-.5,2.591,2.591,0,0,0-.793-.159,4.614,4.614,0,0,0-.77.023,2.465,2.465,0,0,0-.928.294,2.157,2.157,0,0,0-.815.815,3.661,3.661,0,0,0-.453,1.562,3.8,3.8,0,0,0,.113,1.744,2.474,2.474,0,0,0,.589,1,2.06,2.06,0,0,0,.793.475,2.631,2.631,0,0,0,.77.136,3.282,3.282,0,0,0,.793-.045,1.982,1.982,0,0,0,.883-.362,2.71,2.71,0,0,0,.77-.883A3.458,3.458,0,0,0,349.162,831.613Z" transform="translate(-318.086 -822.261)" fill="#fff"/>
      <path id="XMLID_49_" d="M407.562,828.221a6.035,6.035,0,0,1,1.178,1.857,6.321,6.321,0,0,1,.43,2.287,6.694,6.694,0,0,1-.385,2.264,5.653,5.653,0,0,1-1.087,1.857,5.027,5.027,0,0,1-1.721,1.245,5.586,5.586,0,0,1-2.242.453,5.023,5.023,0,0,1-2.106-.453,5.772,5.772,0,0,1-1.721-1.245,6.038,6.038,0,0,1-1.178-1.857,6.2,6.2,0,0,1-.43-2.264,6.827,6.827,0,0,1,.385-2.287,5.65,5.65,0,0,1,1.087-1.857,5.34,5.34,0,0,1,1.721-1.246,5.235,5.235,0,0,1,2.242-.475,4.879,4.879,0,0,1,2.129.475A5.778,5.778,0,0,1,407.562,828.221Zm-4.144,7.835a2.385,2.385,0,0,0,.747-.091,2.052,2.052,0,0,0,.86-.476,3.5,3.5,0,0,0,.747-1.087,6.177,6.177,0,0,0,.453-1.879,5.676,5.676,0,0,0-.113-1.925,3.118,3.118,0,0,0-.566-1.2,1.92,1.92,0,0,0-.77-.611,2.736,2.736,0,0,0-.725-.2,2.585,2.585,0,0,0-.77.091,1.926,1.926,0,0,0-.861.475,3.377,3.377,0,0,0-.747,1.064,5.618,5.618,0,0,0-.43,1.879,5.2,5.2,0,0,0,.091,1.925,3.116,3.116,0,0,0,.566,1.2,2.218,2.218,0,0,0,.77.634A1.692,1.692,0,0,0,403.418,836.056Z" transform="translate(-362.333 -822.424)" fill="#fff"/>
    </g>
    <g id="XMLID_5_" transform="translate(2376.849 -3165.823)">
      <path id="XMLID_9_" d="M473.737,819.612c.136.249.317.634.566,1.132s.5.974.747,1.472c.294.589.589,1.2.928,1.834h-2.038a1.848,1.848,0,0,1-.906-.2,2.2,2.2,0,0,1-.611-.475,2.413,2.413,0,0,1-.362-.521,3.181,3.181,0,0,1-.158-.34,3.185,3.185,0,0,0-.2-.408c-.113-.2-.226-.453-.385-.77-.136-.294-.294-.634-.453-1s-.317-.725-.475-1.11a1.893,1.893,0,0,0-.974-1.064,4.276,4.276,0,0,0-1.336-.317h-2.423v6.182h-.861a4.127,4.127,0,0,1-.793-.068,1.265,1.265,0,0,1-.634-.294,1.476,1.476,0,0,1-.43-.589,2.823,2.823,0,0,1-.136-.951V809.218c.566-.158,1.178-.294,1.834-.43.566-.091,1.223-.181,1.993-.249a22.324,22.324,0,0,1,2.514-.068,8,8,0,0,1,2.649.5,4.856,4.856,0,0,1,1.744,1.064,3.588,3.588,0,0,1,.951,1.472,4.789,4.789,0,0,1,.294,1.7,3.852,3.852,0,0,1-.86,2.4,5.832,5.832,0,0,1-2.332,1.7,3.382,3.382,0,0,1,.793.5,3.612,3.612,0,0,1,.589.589c.158.2.317.43.453.634A5.12,5.12,0,0,1,473.737,819.612Zm-8.084-3.895h2.853a3,3,0,0,0,2.2-.634,2.683,2.683,0,0,0,.679-1.789,3.235,3.235,0,0,0-.2-1.381,2.332,2.332,0,0,0-.634-.883,2.622,2.622,0,0,0-.928-.5,4.241,4.241,0,0,0-1.042-.2,9.211,9.211,0,0,0-2.921.317Z" transform="translate(-462.8 -807.844)" fill="#fff"/>
      <path id="XMLID_12_" d="M530.8,810.435c.408,0,.906.023,1.449.068a3.705,3.705,0,0,1,1.54.476,3.364,3.364,0,0,1,1.223,1.381,5.914,5.914,0,0,1,.5,2.74v6.816h-.838a2.888,2.888,0,0,1-1.132-.2,1.273,1.273,0,0,1-.7-.747,3.776,3.776,0,0,1-.929.7,3.828,3.828,0,0,1-1.721.43,5.658,5.658,0,0,1-1.744-.2,4.138,4.138,0,0,1-1.495-.7,3.358,3.358,0,0,1-1.019-1.223,3.538,3.538,0,0,1-.34-1.744,2.826,2.826,0,0,1,1.97-2.853,10.453,10.453,0,0,1,5.3-.2,3.131,3.131,0,0,0-.045-1.381,1.975,1.975,0,0,0-.611-.974,2.2,2.2,0,0,0-1.54-.43,8.113,8.113,0,0,0-1.766.158,5.833,5.833,0,0,1-1.268.159.959.959,0,0,1-.77-.294,1.969,1.969,0,0,1-.272-1.246,12.175,12.175,0,0,1,1.177-.362c.362-.09.815-.181,1.336-.272C529.644,810.481,530.187,810.435,530.8,810.435Zm2.287-4.416a.812.812,0,0,1,.2.883,2.072,2.072,0,0,1-.861.951,6.463,6.463,0,0,1-1.766.747,7.671,7.671,0,0,1-2.468.249,10.842,10.842,0,0,0,1.155-1.042,13.021,13.021,0,0,1,1.336-1.2,4.828,4.828,0,0,1,1.313-.792A.969.969,0,0,1,533.086,806.02Zm-2.808,13.949a3.764,3.764,0,0,0,1-.136,2.151,2.151,0,0,0,.861-.476,2.259,2.259,0,0,0,.589-.928,4.215,4.215,0,0,0,.181-1.517,6.143,6.143,0,0,0-.747-.159c-.227-.023-.5-.068-.815-.091a7.821,7.821,0,0,0-1.042-.023,3.544,3.544,0,0,0-.679.113,2.434,2.434,0,0,0-.657.294,1.824,1.824,0,0,0-.5.521,1.421,1.421,0,0,0-.2.792,1.65,1.65,0,0,0,.158.793,1.326,1.326,0,0,0,.43.5,1.891,1.891,0,0,0,.657.249A4.054,4.054,0,0,0,530.278,819.969Z" transform="translate(-511.369 -805.733)" fill="#fff"/>
      <path id="XMLID_17_" d="M584.263,826.405a5.285,5.285,0,0,1,2.536.34,4.618,4.618,0,0,1,1.744,1.313,5.434,5.434,0,0,1,.974,1.947,7.425,7.425,0,0,1,.272,2.242,7.3,7.3,0,0,1-.408,2.264,5.341,5.341,0,0,1-1.11,1.857,5.113,5.113,0,0,1-1.744,1.245,5.724,5.724,0,0,1-2.287.453,3.666,3.666,0,0,1-.906-.113,3.322,3.322,0,0,1-.679-.249,2.958,2.958,0,0,1-.475-.272.836.836,0,0,1-.249-.227v4.937h-.838a4.141,4.141,0,0,1-.792-.068,1.264,1.264,0,0,1-.634-.294,1.475,1.475,0,0,1-.43-.589,2.823,2.823,0,0,1-.136-.951V826.677h.838a4.1,4.1,0,0,1,1.109.159,1.215,1.215,0,0,1,.7.679,5.932,5.932,0,0,1,.974-.657A4.25,4.25,0,0,1,584.263,826.405Zm-2.536,5.616a5.589,5.589,0,0,0,.113,1.925,3.131,3.131,0,0,0,.589,1.2,2.51,2.51,0,0,0,.793.634,2.789,2.789,0,0,0,.77.2,2.583,2.583,0,0,0,.793-.091,2,2,0,0,0,.883-.476,3.428,3.428,0,0,0,.792-1.064,5.431,5.431,0,0,0,.453-1.857,6.461,6.461,0,0,0-.091-1.947,2.822,2.822,0,0,0-.566-1.2,1.976,1.976,0,0,0-.792-.611,3.14,3.14,0,0,0-.793-.2,2.5,2.5,0,0,0-.793.068,2.068,2.068,0,0,0-.906.476,3.349,3.349,0,0,0-.792,1.064A4.487,4.487,0,0,0,581.727,832.021Z" transform="translate(-552.764 -821.702)" fill="#fff"/>
      <path id="XMLID_23_" d="M636.4,812.153a1.3,1.3,0,0,1-1-.43A1.419,1.419,0,0,1,635,810.7a1.392,1.392,0,0,1,1.4-1.4,1.431,1.431,0,0,1,1.449,1.4,1.469,1.469,0,0,1-1.449,1.449Zm-.543,1.268H635v9.352a2.826,2.826,0,0,0,.136.951,1.15,1.15,0,0,0,.43.589,1.628,1.628,0,0,0,.634.294,4.3,4.3,0,0,0,.793.068h.838V815.3a2.823,2.823,0,0,0-.136-.951,1.147,1.147,0,0,0-.43-.589,1.585,1.585,0,0,0-.634-.272A4.064,4.064,0,0,0,635.861,813.421Z" transform="translate(-596.005 -808.492)" fill="#fff"/>
      <path id="XMLID_27_" d="M666.87,818.5a7.1,7.1,0,0,1-.408,2.491,5.307,5.307,0,0,1-1.11,1.834,4.757,4.757,0,0,1-1.721,1.132,6.307,6.307,0,0,1-2.2.385,5.05,5.05,0,0,1-2.129-.453,5.494,5.494,0,0,1-1.721-1.245,6.436,6.436,0,0,1-1.155-1.857,6.2,6.2,0,0,1-.43-2.264,6.73,6.73,0,0,1,.5-2.74,5.389,5.389,0,0,1,1.268-1.857,4.54,4.54,0,0,1,1.744-1.019,5.044,5.044,0,0,1,1.9-.227,3.193,3.193,0,0,1,1.087.249,6.829,6.829,0,0,1,.815.408c.249.181.475.362.679.521V808.6h.838a4.147,4.147,0,0,1,.792.068,1.266,1.266,0,0,1,.634.294,1.474,1.474,0,0,1,.43.589,2.82,2.82,0,0,1,.136.951V818.5Zm-5.752-3.736a2.729,2.729,0,0,0-.725.2,2.086,2.086,0,0,0-.77.612,3.707,3.707,0,0,0-.566,1.2,6.822,6.822,0,0,0,.317,3.8,3.506,3.506,0,0,0,.747,1.087,1.928,1.928,0,0,0,.86.476,3.362,3.362,0,0,0,.77.091,2.734,2.734,0,0,0,.725-.2,2.168,2.168,0,0,0,.77-.634,3.949,3.949,0,0,0,.566-1.2,6.815,6.815,0,0,0-.317-3.8,3.131,3.131,0,0,0-.747-1.064,2.281,2.281,0,0,0-1.63-.566Z" transform="translate(-612.25 -807.951)" fill="#fff"/>
      <path id="XMLID_32_" d="M720.762,828.221a6.04,6.04,0,0,1,1.178,1.857,6.319,6.319,0,0,1,.43,2.287,6.691,6.691,0,0,1-.385,2.264,5.652,5.652,0,0,1-1.087,1.857,5.027,5.027,0,0,1-1.721,1.245,5.585,5.585,0,0,1-2.242.453,5.023,5.023,0,0,1-2.106-.453,5.5,5.5,0,0,1-1.721-1.245,6.036,6.036,0,0,1-1.178-1.857,6.2,6.2,0,0,1-.43-2.264,6.825,6.825,0,0,1,.385-2.287,5.646,5.646,0,0,1,1.087-1.857,5.34,5.34,0,0,1,1.721-1.246,5.235,5.235,0,0,1,2.242-.475,4.879,4.879,0,0,1,2.129.475A5.5,5.5,0,0,1,720.762,828.221Zm-4.144,7.835a2.384,2.384,0,0,0,.747-.091,2.053,2.053,0,0,0,.861-.476,3.5,3.5,0,0,0,.747-1.087,6.178,6.178,0,0,0,.453-1.879,5.676,5.676,0,0,0-.113-1.925,3.119,3.119,0,0,0-.566-1.2,1.921,1.921,0,0,0-.77-.611,2.734,2.734,0,0,0-.725-.2,2.585,2.585,0,0,0-.77.091,1.927,1.927,0,0,0-.86.475,3.376,3.376,0,0,0-.747,1.064,5.619,5.619,0,0,0-.43,1.879,5.2,5.2,0,0,0,.091,1.925,3.121,3.121,0,0,0,.566,1.2,2.219,2.219,0,0,0,.77.634A1.86,1.86,0,0,0,716.618,836.056Z" transform="translate(-655.182 -821.797)" fill="#fff"/>
    </g>
    <path id="XMLID_21_" d="M221.832,106.024a16.732,16.732,0,0,1-11.979-3.418c.26,4.494,1.663,8.715,9.383,9.834-2.59.569-4.926.575-7.12-.748,1.119,6.861,13.623,4.654,18.759,6.039,1.385.371,3.715,2,3.783,3.616,2.522,1.712,2.411,3.2-.179,4.691,2.361-3.709-10.848,1.385-12.071,8.363H237.34c10.452,0,7.973-8.808,7.188-10.545-1.174-2.6-2.417-5.421-4.073-9.117-.087-.192-.192-.377-.26-.575-.55-1.613-1.558-6.094,1.9-4.834-3.777-14.445-26.2-2.182-32.561-17.43C208.852,101.511,211.448,104.225,221.832,106.024Z" transform="translate(2073.565 -3274.9)" fill="#fff"/>
  </g>
</svg>
