<svg xmlns="http://www.w3.org/2000/svg" width="73.055" height="77.4" viewBox="0 0 73.055 77.4">
  <g id="Group_4" data-name="Group 4" transform="translate(-1521.217 -775.85)">
    <path id="Ellipse_1" data-name="Ellipse 1" d="M32,3.5A28.508,28.508,0,0,0,20.908,58.262,28.508,28.508,0,0,0,43.092,5.738,28.318,28.318,0,0,0,32,3.5M32,0A32,32,0,1,1,0,32,32,32,0,0,1,32,0Z" transform="translate(1526 785)" fill="#c29d4c"/>
    <path id="Union_1" data-name="Union 1" d="M17-1.75A1.75,1.75,0,0,1,18.75,0V24A1.75,1.75,0,0,1,17,25.75H0A1.75,1.75,0,0,1-1.75,24,1.75,1.75,0,0,1,0,22.25H15.25V0A1.75,1.75,0,0,1,17-1.75Z" transform="translate(1542.5 795.5)" fill="#c29d4c"/>
    <path id="Line_3" data-name="Line 3" d="M0,9.75a1.743,1.743,0,0,1-1.152-.433,1.75,1.75,0,0,1-.165-2.469l7-8a1.75,1.75,0,0,1,2.469-.165,1.75,1.75,0,0,1,.165,2.469l-7,8A1.746,1.746,0,0,1,0,9.75Z" transform="translate(1534.5 843.5)" fill="#c29d4c"/>
    <path id="Line_4" data-name="Line 4" d="M7,9.75a1.746,1.746,0,0,1-1.318-.6l-7-8a1.75,1.75,0,0,1,.165-2.469,1.75,1.75,0,0,1,2.469.165l7,8A1.75,1.75,0,0,1,7,9.75Z" transform="translate(1574.86 843.5)" fill="#c29d4c"/>
    <path id="Path_1" data-name="Path 1" d="M1575.5,815.818a1.75,1.75,0,0,1-1.75-1.75v-3.194a6.444,6.444,0,0,1,.581-2.422,4.568,4.568,0,0,1,4.32-2.713h10.881a5.393,5.393,0,0,1,2.406.643,4.866,4.866,0,0,1,2.49,4.5c.026,1.385,0,3.134,0,3.208a1.75,1.75,0,0,1-1.749,1.724h-.026a1.75,1.75,0,0,1-1.724-1.775c0-.018.025-1.779,0-3.106V810.9c0-1.044-.435-1.31-.6-1.41a1.976,1.976,0,0,0-.821-.255h-10.859a1.088,1.088,0,0,0-1.123.641,2.941,2.941,0,0,0-.279,1.055v3.133A1.75,1.75,0,0,1,1575.5,815.818Z" transform="matrix(0.719, 0.695, -0.695, 0.719, 1007.039, -896.968)" fill="#c29d4c"/>
    <path id="Path_2" data-name="Path 2" d="M1575.5,815.818a1.75,1.75,0,0,1-1.75-1.75v-3.194a6.444,6.444,0,0,1,.581-2.422,4.568,4.568,0,0,1,4.32-2.713h10.881a5.393,5.393,0,0,1,2.406.643,4.866,4.866,0,0,1,2.49,4.5c.026,1.385,0,3.134,0,3.208a1.75,1.75,0,0,1-1.749,1.724h-.026a1.75,1.75,0,0,1-1.724-1.775c0-.018.025-1.779,0-3.106V810.9c0-1.044-.435-1.31-.6-1.41a1.976,1.976,0,0,0-.821-.255h-10.859a1.088,1.088,0,0,0-1.123.641,2.941,2.941,0,0,0-.279,1.055v3.133A1.75,1.75,0,0,1,1575.5,815.818Z" transform="translate(-161.336 1333.913) rotate(-45)" fill="#c29d4c"/>
  </g>
</svg>
